<svg id="Layer_1" data-name="Layer 1" xmlns="http://www.w3.org/2000/svg" viewBox="0 0 1028 254"><defs><style>.cls-1{fill:#fff;}</style></defs><path d="M 213.6 68.1 L 218.4 60.1 Q 222 63.1 226.5 65 A 23.348 23.348 0 0 0 231.87 66.51 A 32.118 32.118 0 0 0 237 66.9 A 27.981 27.981 0 0 0 241.547 66.554 Q 243.97 66.154 245.931 65.293 A 13.701 13.701 0 0 0 248.4 63.9 Q 252.448 61.008 252.595 56.166 A 12.116 12.116 0 0 0 252.6 55.8 A 11.94 11.94 0 0 0 252.263 52.907 A 9.816 9.816 0 0 0 251.4 50.65 A 8.097 8.097 0 0 0 250.2 48.994 Q 248.93 47.613 246.784 46.271 A 25.81 25.81 0 0 0 246.75 46.25 Q 243.634 44.308 237.865 42.08 A 118.584 118.584 0 0 0 236.6 41.6 Q 229.4 38.8 225.1 35.95 A 21.931 21.931 0 0 1 222.011 33.502 Q 220.294 31.853 219.238 29.987 A 13.303 13.303 0 0 1 218.95 29.45 Q 217.1 25.8 217.1 20.8 Q 217.1 15.8 219.85 11.75 Q 222.6 7.7 227.95 5.25 A 25.558 25.558 0 0 1 233.85 3.415 Q 237.093 2.8 240.9 2.8 Q 247.1 2.8 252.05 4.05 Q 257 5.3 261.7 7.6 L 258.2 15.7 A 31.496 31.496 0 0 0 254.074 13.681 A 41.686 41.686 0 0 0 250.25 12.35 Q 245.7 11 240.7 11 A 27.187 27.187 0 0 0 236.67 11.28 Q 234.538 11.6 232.8 12.287 A 12.616 12.616 0 0 0 230.3 13.6 A 9.902 9.902 0 0 0 228.137 15.565 A 7.359 7.359 0 0 0 226.5 20.3 A 10.464 10.464 0 0 0 226.792 22.822 A 8.562 8.562 0 0 0 227.6 24.9 Q 228.656 26.819 231.691 28.647 A 23.503 23.503 0 0 0 231.95 28.8 A 33.003 33.003 0 0 0 234.166 29.972 Q 236.435 31.075 239.646 32.323 A 130.016 130.016 0 0 0 241.7 33.1 A 81.228 81.228 0 0 1 246.678 35.129 Q 251.064 37.1 254.05 39.2 A 26.044 26.044 0 0 1 257.09 41.677 Q 259.313 43.806 260.5 46.15 A 17.579 17.579 0 0 1 262.241 52.013 A 22.155 22.155 0 0 1 262.4 54.7 A 21.71 21.71 0 0 1 261.733 60.201 A 17.105 17.105 0 0 1 259.15 65.8 Q 255.9 70.4 250.15 72.8 A 30.521 30.521 0 0 1 242.74 74.804 A 40.027 40.027 0 0 1 237 75.2 Q 229.7 75.2 223.7 73.25 A 38.206 38.206 0 0 1 218.333 71.068 A 28.433 28.433 0 0 1 213.6 68.1 Z M 484.6 74 L 475.6 74 L 475.6 0 L 484.6 0 L 484.6 30.3 Q 487.4 26.2 491.7 23.5 A 17.572 17.572 0 0 1 498.825 20.991 A 22.595 22.595 0 0 1 501.8 20.8 A 23.225 23.225 0 0 1 506.865 21.318 Q 511.959 22.456 514.95 26.1 Q 519.075 31.126 519.288 39.209 A 33.764 33.764 0 0 1 519.3 40.1 L 519.3 74 L 510.3 74 L 510.3 41.1 Q 510.3 35.5 507.7 32.1 A 8.42 8.42 0 0 0 501.542 28.753 A 11.979 11.979 0 0 0 500.4 28.7 A 13.23 13.23 0 0 0 493.687 30.566 A 17.586 17.586 0 0 0 491.65 31.95 Q 487.5 35.2 484.6 39.6 L 484.6 74 Z M 84 74 L 75 74 L 75 22 L 83.7 22 L 83.7 30.7 Q 86.5 26.5 90.85 23.65 A 17.316 17.316 0 0 1 97.956 21.025 A 22.629 22.629 0 0 1 101.2 20.8 A 23.225 23.225 0 0 1 106.265 21.318 Q 111.359 22.456 114.35 26.1 Q 118.475 31.126 118.688 39.209 A 33.764 33.764 0 0 1 118.7 40.1 L 118.7 74 L 109.7 74 L 109.7 41.1 A 19.265 19.265 0 0 0 109.358 37.359 Q 108.919 35.145 107.919 33.397 A 10.966 10.966 0 0 0 107.05 32.1 A 8.579 8.579 0 0 0 100.773 28.747 A 12.061 12.061 0 0 0 99.7 28.7 A 13.122 13.122 0 0 0 92.851 30.664 A 17.353 17.353 0 0 0 91 31.95 Q 86.9 35.2 84 39.6 L 84 74 Z M 9.5 74 L 0 74 L 0 4 L 41.5 4 L 41.5 12.2 L 9.5 12.2 L 9.5 33.6 L 36.2 33.6 L 36.2 41.4 L 9.5 41.4 L 9.5 74 Z M 176.3 51.7 L 139.9 51.7 A 24.088 24.088 0 0 0 141.039 56.725 Q 142.375 60.538 145 63.1 Q 149.2 67.2 156.1 67.2 Q 160.6 67.2 164.2 66.25 Q 167.8 65.3 171.1 63.8 L 173.2 71.5 A 40.77 40.77 0 0 1 168.865 73.126 A 51.863 51.863 0 0 1 165.1 74.15 A 38.914 38.914 0 0 1 160.008 74.969 A 52.025 52.025 0 0 1 155 75.2 A 28.318 28.318 0 0 1 147.254 74.195 A 21.108 21.108 0 0 1 137.25 68.05 A 23.521 23.521 0 0 1 132.045 58.51 Q 130.7 53.845 130.7 48 A 35.359 35.359 0 0 1 131.533 40.178 A 28.84 28.84 0 0 1 133.65 34.05 A 24.642 24.642 0 0 1 138.666 26.968 A 22.887 22.887 0 0 1 141.9 24.35 A 21.048 21.048 0 0 1 152.159 20.878 A 26.205 26.205 0 0 1 154.2 20.8 Q 161.7 20.8 166.65 24.05 Q 171.6 27.3 174.1 32.8 A 28.185 28.185 0 0 1 176.526 42.664 A 33.434 33.434 0 0 1 176.6 44.9 A 75.204 75.204 0 0 1 176.309 51.597 A 69.426 69.426 0 0 1 176.3 51.7 Z M 317.5 51.7 L 281.1 51.7 A 24.088 24.088 0 0 0 282.239 56.725 Q 283.575 60.538 286.2 63.1 Q 290.4 67.2 297.3 67.2 Q 301.8 67.2 305.4 66.25 Q 309 65.3 312.3 63.8 L 314.4 71.5 A 40.77 40.77 0 0 1 310.065 73.126 A 51.863 51.863 0 0 1 306.3 74.15 A 38.914 38.914 0 0 1 301.208 74.969 A 52.025 52.025 0 0 1 296.2 75.2 A 28.318 28.318 0 0 1 288.454 74.195 A 21.108 21.108 0 0 1 278.45 68.05 A 23.521 23.521 0 0 1 273.245 58.51 Q 271.9 53.845 271.9 48 A 35.359 35.359 0 0 1 272.733 40.178 A 28.84 28.84 0 0 1 274.85 34.05 A 24.642 24.642 0 0 1 279.866 26.968 A 22.887 22.887 0 0 1 283.1 24.35 A 21.048 21.048 0 0 1 293.359 20.878 A 26.205 26.205 0 0 1 295.4 20.8 Q 302.9 20.8 307.85 24.05 Q 312.8 27.3 315.3 32.8 A 28.185 28.185 0 0 1 317.726 42.664 A 33.434 33.434 0 0 1 317.8 44.9 A 75.204 75.204 0 0 1 317.509 51.597 A 69.426 69.426 0 0 1 317.5 51.7 Z M 464.3 23.9 L 461.6 31.5 A 30.422 30.422 0 0 0 458.696 30.224 A 23.42 23.42 0 0 0 456.25 29.45 A 20.543 20.543 0 0 0 453.207 28.924 A 26.355 26.355 0 0 0 450.6 28.8 A 15.889 15.889 0 0 0 443.347 30.443 A 16.132 16.132 0 0 0 438.85 33.85 Q 434.1 38.9 434.1 47.8 A 25.192 25.192 0 0 0 434.805 53.86 A 21.45 21.45 0 0 0 436.1 57.6 A 18.564 18.564 0 0 0 439.01 62.177 A 16.275 16.275 0 0 0 441.65 64.6 Q 445.2 67.2 450 67.2 Q 453.165 67.2 455.568 66.61 A 15.08 15.08 0 0 0 456.5 66.35 Q 459.189 65.503 462.276 63.912 A 49.095 49.095 0 0 0 462.3 63.9 L 465.1 71.5 Q 462 73.2 458.15 74.2 Q 454.3 75.2 449.4 75.2 A 26.803 26.803 0 0 1 442.361 74.31 A 22.074 22.074 0 0 1 436.45 71.75 Q 430.9 68.3 427.9 62.15 Q 424.9 56 424.9 48 Q 424.9 40.5 427.95 34.3 Q 431 28.1 436.7 24.45 A 23.067 23.067 0 0 1 446.368 21.029 A 29.608 29.608 0 0 1 450.1 20.8 Q 454.5 20.8 457.85 21.6 Q 461.2 22.4 464.3 23.9 Z M 365.4 26.2 L 365.4 22 L 373.6 22 L 373.6 61.4 A 12.15 12.15 0 0 0 373.702 63.036 Q 374.034 65.47 375.45 66.35 Q 377.3 67.5 379.5 67.5 L 377.6 74.5 A 17.722 17.722 0 0 1 373.335 74.028 Q 367.698 72.628 366.103 67.08 A 13.59 13.59 0 0 1 366 66.7 A 21.307 21.307 0 0 1 362.89 70.126 A 28.498 28.498 0 0 1 359.75 72.55 Q 355.8 75.2 349.7 75.2 Q 343.2 75.2 337.9 71.9 A 22.947 22.947 0 0 1 330.487 64.373 A 27.923 27.923 0 0 1 329.45 62.55 A 27.228 27.228 0 0 1 326.82 54.608 A 36.644 36.644 0 0 1 326.3 48.3 A 33.142 33.142 0 0 1 327.297 40.031 A 27.968 27.968 0 0 1 329.45 34.3 Q 332.6 28.1 338.15 24.45 A 22.297 22.297 0 0 1 349.345 20.844 A 27.388 27.388 0 0 1 350.9 20.8 A 22.584 22.584 0 0 1 355.694 21.29 A 18.703 18.703 0 0 1 359.05 22.35 A 26.002 26.002 0 0 1 363.337 24.644 A 22.103 22.103 0 0 1 365.4 26.2 Z M 400.5 74 L 391.5 74 L 391.5 22 L 400.2 22 L 400.2 33.3 Q 401.5 30 403.7 27.15 Q 405.9 24.3 409.2 22.55 A 14.817 14.817 0 0 1 413.88 21.026 A 19.459 19.459 0 0 1 416.9 20.8 Q 418.4 20.8 419.9 20.95 A 18.972 18.972 0 0 1 420.955 21.084 Q 421.455 21.162 421.882 21.262 A 8.817 8.817 0 0 1 422.4 21.4 L 419.7 30.7 A 9.763 9.763 0 0 0 417.555 30.088 Q 416.459 29.9 415.2 29.9 A 12.958 12.958 0 0 0 408.57 31.746 A 15.609 15.609 0 0 0 408.15 32 Q 404.822 34.086 402.678 38.442 A 22.927 22.927 0 0 0 402.65 38.5 Q 400.887 42.107 400.57 47.328 A 39.09 39.09 0 0 0 400.5 49.7 L 400.5 74 Z M 59 74 L 50 74 L 50 22 L 59 22 L 59 74 Z M 364.6 60.7 L 364.6 32.8 Q 361.9 30.9 358.65 29.75 Q 355.4 28.6 351.8 28.6 A 15.924 15.924 0 0 0 346.829 29.354 A 14.024 14.024 0 0 0 343.35 31.05 A 16.301 16.301 0 0 0 338.331 36.474 A 19.962 19.962 0 0 0 337.6 37.85 A 20.663 20.663 0 0 0 335.847 43.527 A 27.678 27.678 0 0 0 335.5 48 Q 335.5 53.6 337.6 57.95 A 17.602 17.602 0 0 0 340.706 62.496 A 15.697 15.697 0 0 0 343.4 64.75 Q 347.1 67.2 351.7 67.2 Q 355.5 67.2 358.9 65.35 Q 362.3 63.5 364.6 60.7 Z M 139.8 44.4 L 168.3 44.4 A 24.355 24.355 0 0 0 167.896 39.815 Q 167.4 37.231 166.296 35.207 A 12.422 12.422 0 0 0 164.5 32.7 A 12.488 12.488 0 0 0 157.539 28.924 A 18.395 18.395 0 0 0 154 28.6 A 13.58 13.58 0 0 0 148.888 29.535 A 12.524 12.524 0 0 0 144.4 32.65 Q 140.6 36.7 139.8 44.4 Z M 281 44.4 L 309.5 44.4 A 24.355 24.355 0 0 0 309.096 39.815 Q 308.6 37.231 307.496 35.207 A 12.422 12.422 0 0 0 305.7 32.7 A 12.488 12.488 0 0 0 298.739 28.924 A 18.395 18.395 0 0 0 295.2 28.6 A 13.58 13.58 0 0 0 290.088 29.535 A 12.524 12.524 0 0 0 285.6 32.65 Q 281.8 36.7 281 44.4 Z M 50.137 11.288 A 5.973 5.973 0 0 0 54.5 13.1 A 8.175 8.175 0 0 0 55.996 12.969 A 5.647 5.647 0 0 0 59.1 11.35 Q 60.8 9.6 60.8 6.8 A 7.26 7.26 0 0 0 60.8 6.719 A 6.06 6.06 0 0 0 58.95 2.35 A 7.395 7.395 0 0 0 58.892 2.293 A 6.059 6.059 0 0 0 54.5 0.5 A 8.264 8.264 0 0 0 52.844 0.658 A 5.661 5.661 0 0 0 49.9 2.2 A 5.588 5.588 0 0 0 48.429 4.832 A 7.987 7.987 0 0 0 48.2 6.8 A 5.992 5.992 0 0 0 48.692 9.219 A 6.643 6.643 0 0 0 50.05 11.2 A 7.466 7.466 0 0 0 50.137 11.288 Z" /></svg>